#N canvas 250 25 592 442 12;
#X obj 233 167 i \$1;
#X obj 245 138 loadbang;
#X obj 233 191 + 1;
#X msg 234 250 set \$1;
#X obj 141 280 *~;
#X obj 139 334 dac~;
#X obj 167 54 inlet~;
#X obj 120 212 adc~ 65;
#X connect 0 0 2 0;
#X connect 1 0 0 0;
#X connect 2 0 3 0;
#X connect 3 0 5 0;
#X connect 4 0 5 0;
#X connect 6 0 4 1;
#X connect 7 0 4 0;
