#N canvas 707 25 954 581 12;
#N canvas 368 70 1920 989 guts 1;
#X obj 37 59 array define oneSound;
#X obj 38 289 soundfiler;
#X msg 38 267 read -resize \$1 oneSound;
#X obj 38 226 bng 15 250 50 0 empty empty optional\ sound\ loading\ thing 17 7 0 10 #fcfcfc #000000 #000000;
#X obj 38 244 openpanel;
#X floatatom 38 312 14 0 0 0 - - - 0;
#X msg 37 360 \; oneSound normalize 1;
#X obj 38 337 t b;
#X obj 67 337 s length_samples;
#X obj 7 291 bng 15 250 50 0 empty empty empty 17 7 0 10 #fcfcfc #000000 #000000;
#X obj 37 37 s all_random;
#X obj 37 20 bng 15 250 50 0 empty empty empty 17 7 0 10 #fcfcfc #000000 #000000;
#X obj 344 426 metro 200, f 12;
#X msg 344 450 1;
#X obj 344 474 + 1;
#X floatatom 344 498 5 0 0 0 - - - 0;
#X floatatom 344 543 5 0 0 0 - - - 0;
#X obj 346 225 tgl 15 0 empty empty empty 17 7 0 10 #fcfcfc #000000 #000000 0 1;
#X obj 344 610 send, f 5;
#X msg 376 587 symbol \$1_trigger;
#X obj 344 565 t b f;
#X obj 983 429 tabwrite~ oneSound;
#X obj 1018 246 tgl 15 0 empty record_play_rcv empty 17 7 0 10 #fcfcfc #000000 #000000 0 1;
#X obj 1018 264 sel 1 0, f 14;
#X msg 1018 371 bang;
#X msg 1065 371 stop;
#X obj 1171 449 timer;
#X floatatom 1171 472 7 0 0 0 - - - 0;
#X msg 1171 407 tempo 1 samp;
#X obj 1171 385 loadbang;
#X obj 1203 515 s length_samples;
#X obj 1171 493 t b f;
#X obj 1171 537 s all_random;
#X msg 1050 333 \; oneSound const 0;
#X obj 1018 311 t b b;
#X obj 1143 457 bng 15 250 50 0 empty empty empty 17 7 0 10 #fcfcfc #000000 #000000;
#X obj 37 88 loadbang;
#X msg 37 110 220500;
#X obj 37 132 array size oneSound;
#X msg 346 199 0;
#X msg 379 199 1;
#X obj 390 474 random 15;
#X obj 390 497 + 4;
#X obj 469 229 + 120;
#X msg 1017 523 \; oneSound normalize 1;
#N canvas 329 161 611 388 vu 0;
#X obj 59 111 env~ 1024;
#X obj 161 109 abs~;
#X obj 161 151 snapshot~;
#X obj 161 172 rmstodb;
#X obj 161 21 inlet~;
#X obj 161 193 - 100;
#X obj 59 193 - 100;
#X obj 59 214 outlet;
#X obj 161 214 outlet;
#X text 332 291 Check the help file of env~ and slop~ for more details., f 31;
#X obj 239 89 expr 1000 / $f1;
#X floatatom 239 110 5 0 0 1 hz - - 0;
#X obj 161 130 slop~ 0 0 0 0 1e+09;
#X obj 239 21 inlet;
#X floatatom 239 57 5 0 0 1 peak\ decay\ time\ in\ ms - - 0;
#X text 359 89 convert to hz;
#X obj 59 132 t f b;
#X text 333 116 The env~ object is dedicated to RMS analysis. Its output is in dB (0-100 range \, pd style) but needs to be converted to dBFS (and we do that by simply subtracting 100)., f 31;
#X text 333 209 The slop~ object is used here for peak detection. We need to convert the output to dB with rmstodb and also subtract by 100 to convert it to dBFS., f 31;
#X connect 0 0 16 0;
#X connect 1 0 12 0;
#X connect 2 0 3 0;
#X connect 3 0 5 0;
#X connect 4 0 0 0;
#X connect 4 0 1 0;
#X connect 5 0 8 0;
#X connect 6 0 7 0;
#X connect 10 0 11 0;
#X connect 11 0 12 3;
#X connect 12 0 2 0;
#X connect 13 0 14 0;
#X connect 14 0 10 0;
#X connect 16 0 6 0;
#X connect 16 1 2 0;
#X restore 980 611 pd vu;
#X obj 980 634 s \$0-vu-L;
#X obj 1017 566 catch~ oneSound_out;
#X obj 1111 633 dac~;
#X obj 1359 502 < 7000;
#X obj 1359 526 sel 1;
#X msg 1255 589 \; oneSound const 0;
#X obj 467 200 random 400;
#X obj 367 153 sel 1 0;
#X obj 471 388 s main_tempo;
#X obj 372 127 r record_play_rcv;
#N canvas 29 25 398 464 voice_2 1;
#X obj 24 209 metro 200, f 12;
#X msg 24 233 1;
#X obj 24 257 + 1;
#X floatatom 24 281 5 0 0 0 - - - 0;
#X floatatom 24 326 5 0 0 0 - - - 0;
#X obj 24 191 tgl 15 0 empty empty empty 17 7 0 10 #fcfcfc #000000 #000000 0 1;
#X obj 24 393 send, f 5;
#X msg 56 370 symbol \$1_trigger;
#X obj 24 348 t b f;
#X msg 24 165 0;
#X msg 57 165 1;
#X obj 70 257 random 15;
#X obj 70 280 + 4;
#X obj 107 183 * 2;
#X obj 198 98 random 4;
#X obj 198 122 sel 0 1 2 3;
#X msg 181 150 2;
#X msg 217 151 4;
#X msg 259 148 1.5;
#X msg 303 150 0.5;
#X obj 95 112 r main_tempo;
#X obj 38 52 sel 1 0;
#X obj 37 22 r record_play_rcv;
#X obj 24 304 % 29, f 7;
#X connect 0 0 1 0;
#X connect 1 0 2 0;
#X connect 2 0 3 0;
#X connect 3 0 2 1;
#X connect 3 0 23 0;
#X connect 4 0 8 0;
#X connect 5 0 0 0;
#X connect 7 0 6 1;
#X connect 8 0 6 0;
#X connect 8 1 7 0;
#X connect 9 0 5 0;
#X connect 10 0 5 0;
#X connect 11 0 12 0;
#X connect 12 0 23 1;
#X connect 13 0 0 1;
#X connect 14 0 15 0;
#X connect 15 0 16 0;
#X connect 15 1 17 0;
#X connect 15 2 18 0;
#X connect 15 3 19 0;
#X connect 16 0 13 1;
#X connect 17 0 13 1;
#X connect 18 0 13 1;
#X connect 19 0 13 1;
#X connect 20 0 13 0;
#X connect 21 0 9 0;
#X connect 21 1 10 0;
#X connect 21 1 11 0;
#X connect 21 1 14 0;
#X connect 22 0 21 0;
#X connect 23 0 4 0;
#X restore 350 691 pd voice_2;
#N canvas 634 154 398 464 voice_2 0;
#X obj 24 209 metro 200, f 12;
#X msg 24 233 1;
#X obj 24 257 + 1;
#X floatatom 24 281 5 0 0 0 - - - 0;
#X floatatom 24 326 5 0 0 0 - - - 0;
#X obj 24 191 tgl 15 0 empty empty empty 17 7 0 10 #fcfcfc #000000 #000000 0 1;
#X obj 24 393 send, f 5;
#X msg 56 370 symbol \$1_trigger;
#X obj 24 348 t b f;
#X msg 24 165 0;
#X msg 57 165 1;
#X obj 70 257 random 15;
#X obj 70 280 + 4;
#X obj 107 183 * 2;
#X obj 198 98 random 4;
#X obj 198 122 sel 0 1 2 3;
#X msg 181 150 2;
#X msg 217 151 4;
#X msg 259 148 1.5;
#X msg 303 150 0.5;
#X obj 95 112 r main_tempo;
#X obj 38 52 sel 1 0;
#X obj 37 22 r record_play_rcv;
#X obj 24 304 % 29, f 7;
#X connect 0 0 1 0;
#X connect 1 0 2 0;
#X connect 2 0 3 0;
#X connect 3 0 2 1;
#X connect 3 0 23 0;
#X connect 4 0 8 0;
#X connect 5 0 0 0;
#X connect 7 0 6 1;
#X connect 8 0 6 0;
#X connect 8 1 7 0;
#X connect 9 0 5 0;
#X connect 10 0 5 0;
#X connect 11 0 12 0;
#X connect 12 0 23 1;
#X connect 13 0 0 1;
#X connect 14 0 15 0;
#X connect 15 0 16 0;
#X connect 15 1 17 0;
#X connect 15 2 18 0;
#X connect 15 3 19 0;
#X connect 16 0 13 1;
#X connect 17 0 13 1;
#X connect 18 0 13 1;
#X connect 19 0 13 1;
#X connect 20 0 13 0;
#X connect 21 0 9 0;
#X connect 21 1 10 0;
#X connect 21 1 11 0;
#X connect 21 1 14 0;
#X connect 22 0 21 0;
#X connect 23 0 4 0;
#X restore 434 691 pd voice_2;
#N canvas 193 25 398 464 voice_2 0;
#X obj 24 209 metro 200, f 12;
#X msg 24 233 1;
#X obj 24 257 + 1;
#X floatatom 24 281 5 0 0 0 - - - 0;
#X floatatom 24 326 5 0 0 0 - - - 0;
#X obj 24 191 tgl 15 0 empty empty empty 17 7 0 10 #fcfcfc #000000 #000000 0 1;
#X obj 24 393 send, f 5;
#X msg 56 370 symbol \$1_trigger;
#X obj 24 348 t b f;
#X msg 24 165 0;
#X msg 57 165 1;
#X obj 70 257 random 15;
#X obj 70 280 + 4;
#X obj 107 183 * 2;
#X obj 198 98 random 4;
#X obj 198 122 sel 0 1 2 3;
#X msg 181 150 2;
#X msg 217 151 4;
#X msg 259 148 1.5;
#X msg 303 150 0.5;
#X obj 95 112 r main_tempo;
#X obj 38 52 sel 1 0;
#X obj 37 22 r record_play_rcv;
#X obj 24 304 % 29, f 7;
#X connect 0 0 1 0;
#X connect 1 0 2 0;
#X connect 2 0 3 0;
#X connect 3 0 2 1;
#X connect 3 0 23 0;
#X connect 4 0 8 0;
#X connect 5 0 0 0;
#X connect 7 0 6 1;
#X connect 8 0 6 0;
#X connect 8 1 7 0;
#X connect 9 0 5 0;
#X connect 10 0 5 0;
#X connect 11 0 12 0;
#X connect 12 0 23 1;
#X connect 13 0 0 1;
#X connect 14 0 15 0;
#X connect 15 0 16 0;
#X connect 15 1 17 0;
#X connect 15 2 18 0;
#X connect 15 3 19 0;
#X connect 16 0 13 1;
#X connect 17 0 13 1;
#X connect 18 0 13 1;
#X connect 19 0 13 1;
#X connect 20 0 13 0;
#X connect 21 0 9 0;
#X connect 21 1 10 0;
#X connect 21 1 11 0;
#X connect 21 1 14 0;
#X connect 22 0 21 0;
#X connect 23 0 4 0;
#X restore 353 729 pd voice_2;
#N canvas 298 283 398 464 voice_2 0;
#X obj 24 209 metro 200, f 12;
#X msg 24 233 1;
#X obj 24 257 + 1;
#X floatatom 24 281 5 0 0 0 - - - 0;
#X floatatom 24 326 5 0 0 0 - - - 0;
#X obj 24 191 tgl 15 0 empty empty empty 17 7 0 10 #fcfcfc #000000 #000000 0 1;
#X obj 24 393 send, f 5;
#X msg 56 370 symbol \$1_trigger;
#X obj 24 348 t b f;
#X msg 24 165 0;
#X msg 57 165 1;
#X obj 70 257 random 15;
#X obj 70 280 + 4;
#X obj 107 183 * 2;
#X obj 198 98 random 4;
#X obj 198 122 sel 0 1 2 3;
#X msg 181 150 2;
#X msg 217 151 4;
#X msg 259 148 1.5;
#X msg 303 150 0.5;
#X obj 95 112 r main_tempo;
#X obj 38 52 sel 1 0;
#X obj 37 22 r record_play_rcv;
#X obj 24 304 % 29, f 7;
#X connect 0 0 1 0;
#X connect 1 0 2 0;
#X connect 2 0 3 0;
#X connect 3 0 2 1;
#X connect 3 0 23 0;
#X connect 4 0 8 0;
#X connect 5 0 0 0;
#X connect 7 0 6 1;
#X connect 8 0 6 0;
#X connect 8 1 7 0;
#X connect 9 0 5 0;
#X connect 10 0 5 0;
#X connect 11 0 12 0;
#X connect 12 0 23 1;
#X connect 13 0 0 1;
#X connect 14 0 15 0;
#X connect 15 0 16 0;
#X connect 15 1 17 0;
#X connect 15 2 18 0;
#X connect 15 3 19 0;
#X connect 16 0 13 1;
#X connect 17 0 13 1;
#X connect 18 0 13 1;
#X connect 19 0 13 1;
#X connect 20 0 13 0;
#X connect 21 0 9 0;
#X connect 21 1 10 0;
#X connect 21 1 11 0;
#X connect 21 1 14 0;
#X connect 22 0 21 0;
#X connect 23 0 4 0;
#X restore 437 729 pd voice_2;
#X msg 37 161 vis 5 1;
#X obj 37 183 clone oneSound_mmc_player 29;
#X obj 344 521 % 29, f 7;
#X obj 952 371 adc~;
#X floatatom 548 155 5 0 0 0 - - - 0;
#X floatatom 636 270 5 0 0 0 - - - 0;
#X text 649 233 metronome control;
#X text 580 143 random ceiling;
#X msg 537 307 set \$1;
#X obj 612 343 hradio 20 1 0 6 empty empty Radio 65 -10 0 15 #b8b8b8 #faff00 #780000 0;
#X floatatom 616 403 5 0 0 0 - - - 0;
#X connect 1 0 5 0;
#X connect 2 0 1 0;
#X connect 3 0 4 0;
#X connect 4 0 2 0;
#X connect 5 0 7 0;
#X connect 5 0 8 0;
#X connect 7 0 6 0;
#X connect 9 0 5 0;
#X connect 11 0 10 0;
#X connect 12 0 13 0;
#X connect 13 0 14 0;
#X connect 14 0 15 0;
#X connect 15 0 14 1;
#X connect 15 0 62 0;
#X connect 16 0 20 0;
#X connect 17 0 12 0;
#X connect 19 0 18 1;
#X connect 20 0 18 0;
#X connect 20 1 19 0;
#X connect 22 0 23 0;
#X connect 23 0 34 0;
#X connect 23 1 25 0;
#X connect 23 1 26 1;
#X connect 24 0 21 0;
#X connect 24 0 26 0;
#X connect 25 0 21 0;
#X connect 26 0 27 0;
#X connect 27 0 31 0;
#X connect 27 0 49 0;
#X connect 28 0 26 0;
#X connect 29 0 28 0;
#X connect 31 0 32 0;
#X connect 31 0 44 0;
#X connect 31 1 30 0;
#X connect 34 0 24 0;
#X connect 34 1 33 0;
#X connect 35 0 27 0;
#X connect 36 0 37 0;
#X connect 37 0 38 0;
#X connect 39 0 17 0;
#X connect 40 0 17 0;
#X connect 41 0 42 0;
#X connect 42 0 62 1;
#X connect 43 0 12 1;
#X connect 43 0 54 0;
#X connect 43 0 68 0;
#X connect 45 0 46 0;
#X connect 47 0 48 0;
#X connect 47 0 48 1;
#X connect 49 0 50 0;
#X connect 50 0 51 0;
#X connect 52 0 43 0;
#X connect 53 0 39 0;
#X connect 53 1 40 0;
#X connect 53 1 41 0;
#X connect 53 1 52 0;
#X connect 55 0 53 0;
#X connect 60 0 61 0;
#X connect 62 0 16 0;
#X connect 63 0 21 0;
#X connect 63 0 45 0;
#X connect 64 0 52 1;
#X connect 65 0 68 0;
#X connect 68 0 69 0;
#X connect 69 0 54 0;
#X connect 69 0 70 0;
#X restore 235 242 pd guts;
#X obj 92 35 tgl 200 0 record_play_rcv record_play empty 17 7 0 10 #faff00 #000000 #000000 0 1;
#X obj 300 113 vu 15 120 \$0-vu-L empty 20 10 1 24 #404040 #000000 0 0;
#X text 75 273 to check: how does the offset table play thing work in conjunction with line? does it play backwards?;
#X text 77 318 in the service of: clicks that happen when i think it tries to play past the end of the recording;
#X text 78 362 although the recording is only part of the table...;
#X obj 420 25 notein;
#X obj 394 92 pack 0 0;
#X obj 394 116 route 48;
#X floatatom 394 140 5 0 0 0 - - - 0;
#X obj 402 183 > 0;
#X obj 403 237 s record_play;
#X obj 402 212 change;
#X connect 6 0 7 0;
#X connect 6 1 7 1;
#X connect 7 0 8 0;
#X connect 8 0 9 0;
#X connect 9 0 10 0;
#X connect 10 0 12 0;
#X connect 12 0 11 0;
