#N canvas 148 84 970 764 12;
#X obj 155 371 tabread4~ oneSound, f 19;
#X obj 366 179 random;
#X obj 406 27 r length_samples;
#X obj 365 158 bng 18 250 50 0 empty empty empty 17 7 0 10 #fcfcfc
#000000 #000000;
#X floatatom 366 201 11 0 0 0 - - - 0;
#X msg 154 328 0, f 6;
#X obj 154 349 line~;
#X obj 10 32 bng 18 250 50 0 empty empty empty 17 7 0 10 #fcfcfc #000000
#000000;
#X obj 10 53 t b b, f 21;
#X obj 28 117 random 2000, f 14;
#X floatatom 10 183 7 0 0 0 - - - 0;
#X obj 10 264 pack 0 0;
#X msg 10 286 \$1 \$2;
#X obj 28 97 bng 18 250 50 0 empty empty empty 17 7 0 10 #fcfcfc #000000
#000000;
#X obj 10 139 i;
#X obj 10 10 r \$1_trigger;
#X obj 28 75 r all_random;
#X obj 366 135 r all_random;
#X obj 126 300 *, f 8;
#X obj 172 125 bng 18 250 50 0 empty empty empty 17 7 0 10 #fcfcfc
#000000 #000000;
#X obj 172 104 r all_random;
#X obj 172 145 random 1000;
#X obj 172 166 / 1000;
#X obj 100 10 inlet;
#X obj 123 75 r length_samples;
#X obj 246 441 print;
#X obj 123 96 / 2;
#X obj 119 182 / 44.1;
#X obj 286 508 *~;
#X obj 304 486 line~;
#X obj 336 396 delay;
#X floatatom 369 264 5 0 0 0 - - - 0;
#X obj 368 374 - 5;
#X obj 336 440 bng 18 250 50 0 empty empty empty 17 7 0 10 #fcfcfc
#000000 #000000;
#X obj 304 440 bng 18 250 50 0 empty empty empty 17 7 0 10 #fcfcfc
#000000 #000000;
#X obj 378 396 loadbang;
#X obj 10 161 t f b f, f 16;
#X msg 304 460 1 10;
#X msg 336 460 0 10;
#X obj 53 335 print;
#X obj 286 601 dac~;
#X msg 334 547 set \$1;
#X obj 352 517 i \$1;
#X obj 370 489 loadbang;
#X msg 451 470 1;
#X obj 352 589 throw~ oneSound_out;
#X obj 215 210 * 1;
#X obj 297 89 r pitch_range;
#X floatatom 215 234 5 0 0 0 - - - 0;
#X floatatom 293 163 5 0 0 0 - - - 0;
#X obj 189 188 - 0.5;
#X obj 219 261 + 1;
#X obj 297 113 / 16383;
#X obj 297 137 * 2;
#X obj 273 189 t b f;
#X obj 166 276 t b f;
#X obj 374 335 * 1;
#X obj 540 212 r sound_length;
#X obj 540 236 / 127;
#X obj 546 268 * 0.95;
#X obj 553 306 + 0.05;
#X connect 0 0 28 0;
#X connect 1 0 4 0;
#X connect 2 0 1 1;
#X connect 3 0 1 0;
#X connect 4 0 0 1;
#X connect 5 0 6 0;
#X connect 6 0 0 0;
#X connect 7 0 8 0;
#X connect 8 0 14 0;
#X connect 8 1 5 0;
#X connect 9 0 14 1;
#X connect 10 0 11 0;
#X connect 11 0 12 0;
#X connect 12 0 6 0;
#X connect 13 0 9 0;
#X connect 14 0 36 0;
#X connect 15 0 7 0;
#X connect 16 0 13 0;
#X connect 17 0 3 0;
#X connect 18 0 11 1;
#X connect 18 0 31 0;
#X connect 19 0 21 0;
#X connect 20 0 19 0;
#X connect 21 0 22 0;
#X connect 22 0 50 0;
#X connect 24 0 26 0;
#X connect 26 0 9 1;
#X connect 27 0 18 0;
#X connect 28 0 40 0;
#X connect 28 0 45 0;
#X connect 29 0 28 1;
#X connect 30 0 33 0;
#X connect 31 0 56 0;
#X connect 32 0 30 1;
#X connect 33 0 38 0;
#X connect 34 0 37 0;
#X connect 35 0 33 0;
#X connect 36 0 10 0;
#X connect 36 1 34 0;
#X connect 36 1 30 0;
#X connect 36 2 27 0;
#X connect 37 0 29 0;
#X connect 38 0 29 0;
#X connect 41 0 40 0;
#X connect 42 0 41 0;
#X connect 43 0 42 0;
#X connect 46 0 48 0;
#X connect 47 0 52 0;
#X connect 48 0 51 0;
#X connect 49 0 54 0;
#X connect 50 0 46 0;
#X connect 51 0 55 0;
#X connect 52 0 53 0;
#X connect 53 0 49 0;
#X connect 54 0 46 0;
#X connect 54 1 46 1;
#X connect 55 0 18 0;
#X connect 55 1 18 1;
#X connect 56 0 32 0;
#X connect 57 0 58 0;
#X connect 58 0 59 0;
#X connect 59 0 60 0;
#X connect 60 0 56 1;
