#N canvas 459 50 779 401 12;
#N canvas 233 224 1249 756 guts 1;
#X obj 37 59 array define oneSound;
#X obj 38 289 soundfiler;
#X msg 38 267 read -resize \$1 oneSound;
#X obj 38 226 bng 15 250 50 0 empty empty optional\\\ sound\\\ loading\\\ thing
17 7 0 10 #fcfcfc #000000 #000000;
#X obj 38 244 openpanel;
#X floatatom 38 312 14 0 0 0 - - - 0;
#X msg 37 360 \; oneSound normalize 1;
#X obj 38 337 t b;
#X obj 67 337 s length_samples;
#X obj 7 291 bng 15 250 50 0 empty empty empty 17 7 0 10 #fcfcfc #000000
#000000;
#X obj 37 37 s all_random;
#X obj 37 20 bng 15 250 50 0 empty empty empty 17 7 0 10 #fcfcfc #000000
#000000;
#X obj 278 248 metro 200, f 12;
#X msg 278 272 1;
#X obj 278 296 + 1;
#X floatatom 278 320 5 0 0 0 - - - 0;
#X floatatom 278 405 5 0 0 0 - - - 0;
#X obj 278 230 tgl 15 0 empty empty empty 17 7 0 10 #fcfcfc #000000
#000000 0 1;
#X obj 280 546 send, f 5;
#X msg 312 523 symbol \$1_trigger;
#X obj 280 501 t b f;
#X obj 559 215 tabwrite~ oneSound;
#X obj 594 32 tgl 15 0 empty record_play_rcv empty 17 7 0 10 #fcfcfc
#000000 #000000 0 1;
#X obj 594 50 sel 1 0, f 14;
#X msg 594 157 bang;
#X msg 641 157 stop;
#X obj 747 235 timer;
#X floatatom 747 258 7 0 0 0 - - - 0;
#X msg 747 193 tempo 1 samp;
#X obj 747 171 loadbang;
#X obj 779 301 s length_samples;
#X obj 747 279 t b f;
#X obj 747 323 s all_random;
#X msg 626 119 \; oneSound const 0;
#X obj 594 97 t b b;
#X obj 719 243 bng 15 250 50 0 empty empty empty 17 7 0 10 #fcfcfc
#000000 #000000;
#X obj 37 88 loadbang;
#X msg 37 110 220500;
#X obj 37 132 array size oneSound;
#X msg 278 204 0;
#X msg 311 204 1;
#X obj 324 295 + 4;
#X obj 367 152 + 120;
#X msg 593 309 \; oneSound normalize 1;
#N canvas 329 161 611 388 vu 0;
#X obj 59 111 env~ 1024;
#X obj 161 109 abs~;
#X obj 161 151 snapshot~;
#X obj 161 172 rmstodb;
#X obj 161 21 inlet~;
#X obj 161 193 - 100;
#X obj 59 193 - 100;
#X obj 59 214 outlet;
#X obj 161 214 outlet;
#X text 332 291 Check the help file of env~ and slop~ for more details.
, f 31;
#X obj 239 89 expr 1000 / $f1;
#X floatatom 239 110 5 0 0 1 hz - - 0;
#X obj 161 130 slop~ 0 0 0 0 1e+09;
#X obj 239 21 inlet;
#X floatatom 239 57 5 0 0 1 peak\ decay\ time\ in\ ms - - 0;
#X text 359 89 convert to hz;
#X obj 59 132 t f b;
#X text 333 116 The env~ object is dedicated to RMS analysis. Its output
is in dB (0-100 range \, pd style) but needs to be converted to dBFS
(and we do that by simply subtracting 100)., f 31;
#X text 333 209 The slop~ object is used here for peak detection. We
need to convert the output to dB with rmstodb and also subtract by
100 to convert it to dBFS., f 31;
#X connect 0 0 16 0;
#X connect 1 0 12 0;
#X connect 2 0 3 0;
#X connect 3 0 5 0;
#X connect 4 0 0 0;
#X connect 4 0 1 0;
#X connect 5 0 8 0;
#X connect 6 0 7 0;
#X connect 10 0 11 0;
#X connect 11 0 12 3;
#X connect 12 0 2 0;
#X connect 13 0 14 0;
#X connect 14 0 10 0;
#X connect 16 0 6 0;
#X connect 16 1 2 0;
#X restore 556 397 pd vu;
#X obj 556 420 s \$0-vu-L;
#X obj 655 447 catch~ oneSound_out;
#X obj 649 613 dac~;
#X obj 935 288 < 7000;
#X obj 935 312 sel 1;
#X msg 831 375 \; oneSound const 0;
#X obj 366 117 random 400;
#X obj 301 95 sel 1 0;
#X obj 403 236 s main_tempo;
#X obj 306 69 r record_play_rcv;
#X msg 37 161 vis 5 1;
#X obj 37 183 clone oneSound_mmc_player 29;
#X obj 278 383 % 29, f 7;
#X obj 724 505 *~;
#X obj 761 513 r stereo_volume;
#X obj 422 172 * 1;
#X obj 476 76 / 127;
#X obj 454 141 t b f;
#X floatatom 483 167 5 0 0 0 - - - 0;
#X floatatom 371 214 5 0 0 0 - - - 0;
#X obj 476 100 * 2;
#X obj 84 455 notein;
#X obj 58 522 pack 0 0;
#X floatatom 58 570 5 0 0 0 - - - 0;
#X obj 66 613 > 0;
#X obj 67 667 s record_play;
#X obj 66 642 change;
#X obj 473 50 r trigger_rate;
#X obj 767 70 s trigger_rate_rcv;
#X obj 921 37 bendin, f 7;
#X obj 921 61 s pitch_range_rcv;
#X obj 908 151 s sound_length_rcv;
#X obj 767 46 ctlin 1;
#X obj 58 546 route 48;
#X text 316 612 should it rerandom each time?;
#X text 319 641 thing for changing modulo?;
#X text 561 653 reversing?;
#X text 168 573 live routing of mic to speakers!;
#X obj 324 272 random 25;
#X obj 884 694 clone mic_monitor 29;
#X obj 911 506 r record_play_rcv;
#X obj 988 543 r monitor_max;
#X floatatom 1001 575 5 0 0 0 - - - 0;
#X obj 965 643 *~;
#X obj 911 530 sel 0 1;
#X obj 1001 598 sig~;
#X obj 931 610 line~;
#X msg 904 566 1 10;
#X msg 950 566 0 10;
#X obj 1042 655 snapshot~;
#X obj 1070 613 metro 5;
#X floatatom 1042 679 5 0 0 0 - - - 0;
#X obj 1079 580 tgl 15 0 empty empty empty 17 7 0 10 #fcfcfc #000000
#000000 0 1;
#X msg 528 107 set 0;
#X obj 280 427 + 0;
#X obj 279 451 % 29;
#X obj 416 342 random 29;
#X obj 481 308 bng 15 250 50 0 empty empty empty 17 7 0 10 #fcfcfc
#000000 #000000;
#X floatatom 279 475 5 0 0 0 - - - 0;
#X obj 507 482 voice2;
#X obj 333 352 * 1;
#X floatatom 357 299 5 0 0 0 - - - 0;
#X obj 357 322 t b f;
#X obj 426 268 r loop_length;
#X obj 504 523 voice2;
#X obj 565 483 voice2;
#X obj 562 524 voice2;
#X obj 525 552 voice2;
#X obj 522 593 voice2;
#X obj 583 553 voice2;
#X obj 580 594 voice2;
#X obj 908 127 ctlin 31;
#X obj 1084 100 ctlin 32;
#X obj 1084 124 / 4.4;
#X obj 1084 148 s loop_length_rcv;
#X obj 528 157 adc~ 65;
#X obj 1080 271 *~;
#X obj 1060 326 dac~;
#X obj 1153 220 vsl 15 128 0 1 0 0 empty empty empty 0 -9 0 10 #fcfcfc
#000000 #000000 0 1;
#X obj 1061 204 adc~ 65;
#X obj 805 544 vsl 15 128 0 1 0 0 empty empty empty 0 -9 0 10 #fcfcfc
#000000 #000000 0 1;
#X msg 807 680 \$1 10;
#X connect 1 0 5 0;
#X connect 2 0 1 0;
#X connect 3 0 4 0;
#X connect 4 0 2 0;
#X connect 5 0 7 0;
#X connect 5 0 8 0;
#X connect 7 0 6 0;
#X connect 9 0 5 0;
#X connect 11 0 10 0;
#X connect 12 0 13 0;
#X connect 13 0 14 0;
#X connect 14 0 15 0;
#X connect 15 0 14 1;
#X connect 15 0 57 0;
#X connect 16 0 99 0;
#X connect 17 0 12 0;
#X connect 19 0 18 1;
#X connect 20 0 18 0;
#X connect 20 1 19 0;
#X connect 22 0 23 0;
#X connect 23 0 34 0;
#X connect 23 1 25 0;
#X connect 23 1 26 1;
#X connect 24 0 21 0;
#X connect 24 0 26 0;
#X connect 25 0 21 0;
#X connect 26 0 27 0;
#X connect 27 0 31 0;
#X connect 27 0 48 0;
#X connect 28 0 26 0;
#X connect 29 0 28 0;
#X connect 31 0 32 0;
#X connect 31 0 43 0;
#X connect 31 1 30 0;
#X connect 34 0 24 0;
#X connect 34 1 33 0;
#X connect 35 0 27 0;
#X connect 36 0 37 0;
#X connect 37 0 38 0;
#X connect 39 0 17 0;
#X connect 40 0 17 0;
#X connect 41 0 105 0;
#X connect 42 0 60 0;
#X connect 44 0 45 0;
#X connect 46 0 58 0;
#X connect 46 0 47 0;
#X connect 48 0 49 0;
#X connect 49 0 50 0;
#X connect 51 0 42 0;
#X connect 52 0 39 0;
#X connect 52 1 40 0;
#X connect 52 1 51 0;
#X connect 52 1 83 0;
#X connect 52 1 101 0;
#X connect 54 0 52 0;
#X connect 55 0 56 0;
#X connect 57 0 16 0;
#X connect 58 0 47 0;
#X connect 58 0 47 1;
#X connect 59 0 58 1;
#X connect 60 0 64 0;
#X connect 61 0 65 0;
#X connect 62 0 60 0;
#X connect 62 1 60 1;
#X connect 62 1 63 0;
#X connect 64 0 12 1;
#X connect 64 0 53 0;
#X connect 65 0 62 0;
#X connect 66 0 67 0;
#X connect 66 1 67 1;
#X connect 67 0 78 0;
#X connect 68 0 69 0;
#X connect 69 0 71 0;
#X connect 71 0 70 0;
#X connect 72 0 61 0;
#X connect 74 0 75 0;
#X connect 77 0 73 0;
#X connect 78 0 68 0;
#X connect 83 0 41 0;
#X connect 85 0 89 0;
#X connect 86 0 87 0;
#X connect 87 0 90 0;
#X connect 88 0 94 0;
#X connect 88 0 84 0;
#X connect 89 0 93 0;
#X connect 89 1 92 0;
#X connect 90 0 88 1;
#X connect 91 0 88 0;
#X connect 92 0 91 0;
#X connect 93 0 91 0;
#X connect 94 0 96 0;
#X connect 95 0 94 0;
#X connect 97 0 95 0;
#X connect 98 0 120 0;
#X connect 99 0 100 0;
#X connect 100 0 103 0;
#X connect 101 0 99 1;
#X connect 102 0 101 0;
#X connect 103 0 20 0;
#X connect 105 0 57 1;
#X connect 106 0 107 0;
#X connect 107 0 105 0;
#X connect 107 1 105 1;
#X connect 108 0 106 0;
#X connect 116 0 76 0;
#X connect 117 0 118 0;
#X connect 118 0 119 0;
#X connect 120 0 21 0;
#X connect 120 0 44 0;
#X connect 121 0 122 0;
#X connect 121 0 122 1;
#X connect 123 0 121 1;
#X connect 124 0 121 0;
#X connect 125 0 126 0;
#X connect 126 0 91 0;
#X restore 235 242 pd guts;
#X obj 92 35 tgl 200 0 record_play_rcv record_play empty 17 7 0 10
#faff00 #000000 #000000 0 1;
#X obj 300 113 vu 15 120 \$0-vu-L empty 20 10 1 24 #404040 #000000
0 0;
#X text 75 273 to check: how does the offset table play thing work
in conjunction with line? does it play backwards?;
#X text 77 318 in the service of: clicks that happen when i think it
tries to play past the end of the recording;
#X text 78 362 although the recording is only part of the table...
;
#X obj 26 36 vsl 15 200 0 1 0 0 stereo_volume stereo_volume_rcv stereo_volume
0 -9 0 10 #fcfcfc #000000 #000000 0 1;
#X obj 424 31 vsl 15 128 0 127 0 0 trigger_rate trigger_rate_rcv trigger_rate
0 -9 0 10 #fcfcfc #000000 #000000 0 1;
#X obj 466 53 vsl 15 128 0 16383 0 0 pitch_range pitch_range_rcv pitch_range
0 -9 0 10 #fcfcfc #000000 #000000 0 1;
#X obj 508 81 vsl 15 128 0 127 0 0 sound_length sound_length_rcv sound_length
0 -9 0 10 #fcfcfc #000000 #000000 0 1;
#X obj 331 119 vsl 15 128 0 1 0 1 monitor_max monitor_max_rcv monitor_max
0 -9 0 10 #fcfcfc #000000 #000000 12700 1;
#X obj 549 105 vsl 15 128 0 29 0 1 loop_length loop_length_rcv loop_length
0 -9 0 10 #fcfcfc #000000 #000000 199 1;
