#N canvas 179 204 472 571 12;
#X obj 24 209 metro 200, f 12;
#X msg 24 233 1;
#X obj 24 257 + 1;
#X floatatom 24 281 5 0 0 0 - - - 0;
#X floatatom 26 423 5 0 0 0 - - - 0;
#X obj 24 191 tgl 15 0 empty empty empty 17 7 0 10 #fcfcfc #000000
#000000 0 1;
#X obj 26 490 send, f 5;
#X msg 58 467 symbol \$1_trigger;
#X obj 26 445 t b f;
#X msg 24 165 0;
#X msg 57 165 1;
#X obj 70 257 random 15;
#X obj 70 280 + 4;
#X obj 107 183 * 2;
#X obj 198 98 random 4;
#X obj 198 122 sel 0 1 2 3;
#X msg 181 150 2;
#X msg 217 151 4;
#X msg 259 148 1.5;
#X msg 303 150 0.5;
#X obj 95 112 r main_tempo;
#X obj 38 52 sel 1 0;
#X obj 37 22 r record_play_rcv;
#X obj 26 401 % 29, f 7;
#X obj 113 360 * 1;
#X floatatom 137 307 5 0 0 0 - - - 0;
#X obj 137 330 t b f;
#X obj 206 276 r loop_length;
#X connect 0 0 1 0;
#X connect 1 0 2 0;
#X connect 2 0 3 0;
#X connect 3 0 2 1;
#X connect 3 0 23 0;
#X connect 4 0 8 0;
#X connect 5 0 0 0;
#X connect 7 0 6 1;
#X connect 8 0 6 0;
#X connect 8 1 7 0;
#X connect 9 0 5 0;
#X connect 10 0 5 0;
#X connect 11 0 12 0;
#X connect 12 0 24 0;
#X connect 13 0 0 1;
#X connect 14 0 15 0;
#X connect 15 0 16 0;
#X connect 15 1 17 0;
#X connect 15 2 18 0;
#X connect 15 3 19 0;
#X connect 16 0 13 1;
#X connect 17 0 13 1;
#X connect 18 0 13 1;
#X connect 19 0 13 1;
#X connect 20 0 13 0;
#X connect 21 0 9 0;
#X connect 21 1 10 0;
#X connect 21 1 11 0;
#X connect 21 1 14 0;
#X connect 22 0 21 0;
#X connect 23 0 4 0;
#X connect 24 0 23 1;
#X connect 25 0 26 0;
#X connect 26 0 24 0;
#X connect 26 1 24 1;
#X connect 27 0 25 0;
